PathFileType	4	(X/Y/Z)	1_coords_data.trc
DataRate	CameraRate	NumFrames	NumMarkers	Units	OrigDataRate	OrigDataStartFrame	OrigNumFrames
30.0	30.0	8	21	m	30.0	31	61
Frame#	Time	THUMB_TIP	THUMB_IP	THUMB_MCP	THUMB_CMC	INDEX_TIP	INDEX_DIP	INDEX_PIP	INDEX_MCP	MIDDLE_TIP	MIDDLE_DIP	MIDDLE_PIP	MIDDLE_MCP	RING_TIP	RING_DIP	RING_PIP	RING_MCP	PINKY_TIP	PINKY_DIP	PINKY_PIP	PINKY_MCP	WRIST
X1	Y1	Z1	X2	Y2	Z2	X3	Y3	Z3	X4	Y4	Z4	X5	Y5	Z5	X6	Y6	Z6	X7	Y7	Z7	X8	Y8	Z8	X9	Y9	Z9	X10	Y10	Z10	X11	Y11	Z11	X12	Y12	Z12	X13	Y13	Z13	X14	Y14	Z14	X15	Y15	Z15	X16	Y16	Z16	X17	Y17	Z17	X18	Y18	Z18	X19	Y19	Z19	X20	Y20	Z20	X21	Y21	Z21
29	0.9999999999999956	0.4719814098511513	-0.024309784094248887	-0.17043431893503652	0.4772999785310258	-0.026811623503747772	-0.1482205028115845	0.47485785324434066	-0.03546949877821115	-0.11842289854855736	0.4785272747021643	-0.031007412416024338	-0.07419038639447273	0.5089810673710621	-0.016546983898388934	-0.10477725511029412	0.526493462962463	-0.012488010121380788	-0.10697742158759616	0.5359701283422242	0.007235697834561905	-0.11935393122273641	0.4938275181662603	0.012843392185675206	-0.1218419556641826	0.5064418358385075	-0.017432968924007808	-0.0859500429695661	0.5235687271784503	-0.01160572605105048	-0.08510574827613082	0.5391787693031549	0.010878797091723014	-0.09511486181864948	0.49916950631650187	0.029375552571624053	-0.10241395991235913	0.5031276884845706	-0.006378644402149747	-0.07234748553239456	0.520447591410667	-0.0022098431738173385	-0.069583058114419	0.5361443148005977	0.016664883289326138	-0.07377084449406157	0.5033557697632126	0.03888094743724846	-0.0818997215448466	0.5024083123267873	-0.006954118152912803	-0.05486816457475996	0.5189160667115598	-0.003994112070778932	-0.05144290412250896	0.5307739653943637	0.013287508581854235	-0.05268702849203233	0.504475254233701	0.03726770836167437	-0.058536067798443336	0.4622830810018609	-0.023011742144276925	-0.051989820119430985
30	1.0333333333333288	0.4720562776079862	-0.024272426449487683	-0.170468125278253	0.4773093060746701	-0.026769066788563833	-0.14823813474866654	0.47485515154793617	-0.0354212077723558	-0.11843985322178147	0.47852743570735307	-0.030959211152117527	-0.07420756959077868	0.5088503273691878	-0.016409700613160605	-0.10486226033246981	0.5263591285513634	-0.01232832459905997	-0.10704955340715716	0.5357502427853074	0.007472503602674707	-0.11936799523112185	0.4935953785317856	0.012977652452608623	-0.12187734771876108	0.5063359815723046	-0.01728795577238662	-0.08606047089777746	0.5234563882896139	-0.011440751018333861	-0.08522269384026626	0.5389932197941547	0.011099516628049533	-0.09522033112259043	0.4989314926928178	0.0295111973727491	-0.10244639193144534	0.5030957527582177	-0.006258146911273688	-0.07240244697332399	0.5204167853936889	-0.0020701599104629986	-0.0696743352963598	0.5360297505420692	0.016869468259316678	-0.07388215932618214	0.5031604686358203	0.038995701155705054	-0.0819295787126888	0.5024002924490052	-0.006847044986618922	-0.05490838288285527	0.5189143884832219	-0.003872578332364096	-0.05152649283505739	0.5307447990185783	0.013428122772548012	-0.05276711640545295	0.5043689813891712	0.037341141368628095	-0.058543554495122385	0.4622830810018609	-0.023011742144276925	-0.051989820119430985
31	1.0666666666666622	0.47209589180668277	-0.024241152318258297	-0.17051560016578832	0.4772857428033147	-0.02672293579408469	-0.14826911286078048	0.47483068524279737	-0.03536802422140195	-0.11846885886088293	0.47851230368073344	-0.030906882825202486	-0.0742372649135632	0.5086456808312514	-0.016277778878962867	-0.10497373090748885	0.5261513862621351	-0.012172729020833328	-0.10714141239456243	0.5354577478302882	0.007716181595020299	-0.1193820292857729	0.4932934285898428	0.013128493868637459	-0.12193411722365088	0.5062047211116991	-0.017119420883152547	-0.0862101824166579	0.5233223142895143	-0.011262593643947105	-0.0853821857446142	0.5387561142542563	0.01134960268345686	-0.09537698168546627	0.49863031066233265	0.029656784429491045	-0.10251244968834039	0.5029717479018427	-0.006131524996351501	-0.07248945202851431	0.520292166731724	-0.001892263952355755	-0.06983770593238114	0.5358597576313355	0.017084039220321978	-0.07404840783122779	0.502910318494328	0.0391243779139645	-0.08200320291508534	0.5023598365039793	-0.006734791867177181	-0.05497458240538455	0.518883189712967	-0.0037307967467103964	-0.05166477696589944	0.5306856205566801	0.013589103634900734	-0.052904008966146554	0.5042294029031125	0.037431737694128	-0.0586032018550422	0.4622830810018609	-0.023011742144276925	-0.051989820119430985
32	1.0999999999999952	0.472136771995194	-0.024211852115475718	-0.17056259422137288	0.4772534677534235	-0.026679570621316984	-0.14829760399245862	0.4748072078008836	-0.03532520821333884	-0.11849678583469625	0.4784961664633731	-0.030857562014350526	-0.07426646002279302	0.5083748589222269	-0.01615057201787229	-0.1050847073711676	0.5258759448230276	-0.012018616686226169	-0.10723852663704803	0.5351182208901879	0.007954708787357045	-0.11938992308456425	0.49294656174413426	0.01327638062217995	-0.12201043214799584	0.5060470271811803	-0.016951335027266312	-0.08636911254948587	0.5231587557763975	-0.011075826285743662	-0.08555232523817591	0.5384932488299139	0.011603564003675682	-0.09554773062724586	0.4983029642851109	0.029803780746465725	-0.10259337181334371	0.5028877575053978	-0.006018866164432812	-0.07256918242000776	0.5201994739113434	-0.0016959829769699342	-0.0699967990839413	0.5356953782671362	0.017331395245888115	-0.0742413020183762	0.5026431406566502	0.0392531896094952	-0.08209657762268874	0.502329997098663	-0.006625457064322937	-0.05506000518757459	0.5188589384449377	-0.0035880669077631433	-0.051809103926655276	0.5306246020863592	0.01375584117574058	-0.05306211249322923	0.5040833716103909	0.0375254453592605	-0.05867036113075641	0.4622830810018609	-0.023011742144276925	-0.051989820119430985
33	1.1333333333333284	0.4721500903031462	-0.02419804149796878	-0.17060699354506897	0.47718254477706007	-0.026652387954341994	-0.14832133480586918	0.47475091472900466	-0.03528672187243531	-0.11851604243856873	0.47848651948381754	-0.030808459862595172	-0.07429070550952943	0.5080697160605446	-0.016012278369512356	-0.10522887781647683	0.5255689777555042	-0.01185728639044803	-0.10735299687746047	0.5347445656430968	0.008198912262313174	-0.1194181249546109	0.49256447482672994	0.013421657046766011	-0.12210121452440131	0.5058579972114892	-0.01677922648728103	-0.08651217152898505	0.522965475208574	-0.010889214284920845	-0.08571095193654421	0.5381985720631528	0.011854411989432045	-0.0957154396351515	0.4979482657735097	0.02994733594816079	-0.10269447017051836	0.502774557076988	-0.005893415326435614	-0.0726456329358699	0.5200813317148415	-0.00149501577178901	-0.07016982337287025	0.5354944573874982	0.017594689880510495	-0.07443581377457731	0.5023412050503143	0.039390926302765306	-0.08221442363059817	0.5022690136559091	-0.006470348345412824	-0.05513737595602086	0.5188069075981235	-0.0034031933257506752	-0.05196080169411055	0.5305355810015402	0.01396446480386282	-0.05323150633676388	0.5038967180477398	0.037644518051729525	-0.058755047746660294	0.4622830810018609	-0.023011742144276925	-0.051989820119430985
34	1.1666666666666616	0.4721936716994272	-0.024210367978614977	-0.1706470351966114	0.47714153539225046	-0.026667986775335883	-0.14834280342936046	0.47471250176863816	-0.03528952433069055	-0.11853359535807867	0.47846030077764307	-0.030809097029027788	-0.07430950945703796	0.5077867184874308	-0.015924472792382627	-0.10537061251973079	0.5252936988898835	-0.01177789447021571	-0.10744703381760679	0.534420658970823	0.0083433471620874	-0.11944053488507711	0.49223903033301397	0.013518685629397287	-0.1221904751045646	0.5057084205460541	-0.016641102185417256	-0.08664752557474609	0.522811583298317	-0.010735671436510441	-0.0858679670205178	0.5379585389541559	0.012057954592577635	-0.09588943880893963	0.4976515596687699	0.03005448161373403	-0.10279018928002981	0.5026956245911336	-0.00579613564765169	-0.07272294886448571	0.5199973408001135	-0.0013389749756282932	-0.07031788442300124	0.5353432589936746	0.017796947770272964	-0.0746189580633182	0.5021050010260287	0.03949163658567156	-0.08231827741500408	0.5022256529806203	-0.006361713981966832	-0.05520787871143973	0.5187701108390755	-0.003281093144886338	-0.052078870972883995	0.530473545425874	0.01410209561975495	-0.05336975681035416	0.5037690600111302	0.03772413891418824	-0.05882438606720197	0.4622830810018609	-0.023011742144276925	-0.051989820119430985
35	1.1999999999999948	0.47214483251465866	-0.024204564551138064	-0.1706715102865543	0.47703560004138434	-0.0266647896484844	-0.14835497638296807	0.47463538097001506	-0.035283495072588544	-0.11854261543617373	0.47844522934276573	-0.03079780411112587	-0.07432436544847176	0.5075075809452793	-0.015849760270124524	-0.10549631943407967	0.5250174250626021	-0.011699339088194649	-0.10754066847464039	0.5341086523389027	0.008477182941154071	-0.1194682574351073	0.49192585607800066	0.013612692253758718	-0.12227438246998829	0.5055602761149334	-0.016527617302997677	-0.08674435698857474	0.5226546551241974	-0.010590755993898138	-0.08601231594863912	0.5377169332634408	0.012246766452973179	-0.09606144007687634	0.4973582346805945	0.030155538956188832	-0.10288780346648796	0.502614643861148	-0.005730275473957214	-0.07278079806227655	0.5199069933945126	-0.001193154429802723	-0.0704593372621265	0.5351844669649326	0.01798857445798352	-0.07479985073182005	0.501867875848557	0.039585887526914276	-0.08243409323431095	0.5021879573518978	-0.006291314468040099	-0.05526824069397274	0.5187352004961892	-0.003168734103229376	-0.05219606944402588	0.530400847233036	0.014237755373558647	-0.05351471621460646	0.5036360427722976	0.03780510868505971	-0.0589099503216054	0.4622830810018609	-0.023011742144276925	-0.051989820119430985
36	1.233333333333328	0.47209163727495285	-0.02420527169461284	-0.17069482161938415	0.47694033059712826	-0.026674315262478432	-0.1483700820480594	0.4745702672134212	-0.03529315916287479	-0.11855534862014133	0.478418378027463	-0.030807432244045807	-0.0743404156543147	0.5072541194378588	-0.015855435021459252	-0.10557278228302958	0.5247645051806136	-0.011696794883111927	-0.10759567707506901	0.5338615214153348	0.008508843026309054	-0.11946944333934179	0.49168634394311195	0.013667778918697304	-0.12234622620301722	0.5054368766335877	-0.016486329095723118	-0.08680395747552183	0.5225270525270549	-0.010530685112712046	-0.08612853710421386	0.5375366398633055	0.012331510879693308	-0.09620037072080623	0.49715390715179575	0.03020528612615958	-0.1029761347507574	0.5025819398597106	-0.0056552980615691695	-0.07286752047611245	0.5198702139974809	-0.0010824627487673322	-0.07058612736240033	0.5350913161752313	0.018134273952451818	-0.07496962574274746	0.5017008528114562	0.03964011583648985	-0.08253907454772325	0.5021838676483008	-0.006251832033656091	-0.055315747848223684	0.5187390449477219	-0.0031185363511714304	-0.052297708294001044	0.530364136157588	0.014313396552132374	-0.0536382263345383	0.5035607210584568	0.037847458244174015	-0.058986901899465316	0.4622830810018609	-0.023011742144276925	-0.051989820119430985
